<svg width="200" height="200" xmlns="http://www.w3.org/2000/svg">
  <defs>
    <linearGradient id="croissantGradient" x1="0%" y1="0%" x2="100%" y2="100%">
      <stop offset="0%" style="stop-color:#F5DEB3;stop-opacity:1" />
      <stop offset="100%" style="stop-color:#DEB887;stop-opacity:1" />
    </linearGradient>
  </defs>
  
  <!-- Croissant body -->
  <path d="M60 100 Q80 60 100 100 Q120 60 140 100 Q120 140 100 100 Q80 140 60 100" fill="url(#croissantGradient)" stroke="#D2691E" stroke-width="2"/>
  
  <!-- Croissant layers -->
  <path d="M70 95 Q85 70 100 95 Q115 70 130 95 Q115 120 100 95 Q85 120 70 95" fill="#F4A460" opacity="0.6"/>
  <path d="M75 100 Q90 75 105 100 Q120 75 125 100 Q120 125 105 100 Q90 125 75 100" fill="#F4A460" opacity="0.4"/>
  
  <!-- Flaky texture lines -->
  <path d="M70 100 Q85 85 100 100" fill="none" stroke="#D2691E" stroke-width="1" opacity="0.5"/>
  <path d="M100 100 Q115 85 130 100" fill="none" stroke="#D2691E" stroke-width="1" opacity="0.5"/>
  <path d="M75 105 Q90 90 105 105" fill="none" stroke="#D2691E" stroke-width="1" opacity="0.5"/>
  <path d="M95 105 Q110 90 125 105" fill="none" stroke="#D2691E" stroke-width="1" opacity="0.5"/>
  
  <!-- Golden highlights -->
  <ellipse cx="85" cy="85" rx="8" ry="4" fill="#FFD700" opacity="0.3"/>
  <ellipse cx="115" cy="85" rx="8" ry="4" fill="#FFD700" opacity="0.3"/>
  <ellipse cx="100" cy="105" rx="12" ry="6" fill="#FFD700" opacity="0.2"/>
  
  <!-- Plate -->
  <ellipse cx="100" cy="155" rx="60" ry="20" fill="#F0F8FF" stroke="#D3D3D3" stroke-width="2"/>
</svg>